<?xml version="1.0" encoding="utf-8"?>
<!-- Generator: Adobe Illustrator 16.0.0, SVG Export Plug-In . SVG Version: 6.00 Build 0)  -->
<!DOCTYPE svg PUBLIC "-//W3C//DTD SVG 1.1//EN" "http://www.w3.org/Graphics/SVG/1.1/DTD/svg11.dtd">
<svg version="1.1" id="Calque_1" xmlns="http://www.w3.org/2000/svg" xmlns:xlink="http://www.w3.org/1999/xlink" x="0px" y="0px"
	 width="100px" height="10px" viewBox="0 0 100 10" enable-background="new 0 0 100 10" xml:space="preserve">
<ellipse fill="#131910" cx="19.997" cy="-0.847" rx="24.585" ry="4.194"/>
<ellipse fill="#131910" cx="69.242" cy="-0.341" rx="17.34" ry="4.195"/>
<ellipse fill="#131910" cx="107.242" cy="-0.847" rx="17.34" ry="4.194"/>
<path fill="#131910" d="M39.125-0.965l17.188,0.118c0,0,2.836,4.192-1.051,2.988c-3.887-1.204-9.896-2.112-13.641-0.993
	c-3.746,1.12-2.871-0.783-2.871-0.783L39.125-0.965z"/>
<path fill="#131910" d="M80,1.307l4.167-2.304l10.25,0.253c0,0,1.919,3.373-0.937,2.447s-6.799-0.724-9.246,0.064
	c-2.447,0.788-1.567-0.904-1.567-0.904L80,1.307z"/>
<path d="M29,2.25"/>
</svg>
